<?xml version="1.0" encoding="UTF-8"?>
<svg width="12px" height="12px" viewBox="0 0 12 12" version="1.1" xmlns="http://www.w3.org/2000/svg" xmlns:xlink="http://www.w3.org/1999/xlink">
    <!-- Generator: Sketch 46.2 (44496) - http://www.bohemiancoding.com/sketch -->
    <title>search</title>
    <desc>Created with Sketch.</desc>
    <defs></defs>
    <g id="table" stroke="none" stroke-width="1" fill="none" fill-rule="evenodd">
        <g id="search" fill-rule="nonzero" fill="#B2B2B2">
            <path d="M5.40055334,10.7881773 C6.62526898,10.7881773 7.76145097,10.3743842 8.66154319,9.66502463 L10.7863511,11.7931034 C10.9339072,11.9408867 11.1109745,12 11.2880418,12 C11.4651091,12 11.6421765,11.9261084 11.7897326,11.7931034 C12.0700891,11.5123153 12.0700891,11.0689655 11.7897326,10.7881773 L9.65016907,8.66009852 C10.3436828,7.75862069 10.7715955,6.62068966 10.7715955,5.39408867 C10.7715955,2.43842365 8.36643099,0 5.38579773,0 C2.43467568,0 0,2.408867 0,5.39408867 C0,8.37931034 2.43467568,10.7881773 5.40055334,10.7881773 Z M5.40055334,1.44827586 C7.58438365,1.44827586 9.36981248,3.22167488 9.36981248,5.42364532 C9.36981248,7.62561576 7.59913926,9.39901478 5.40055334,9.39901478 C3.21672302,9.39901478 1.43129419,7.62561576 1.43129419,5.42364532 C1.43129419,3.22167488 3.21672302,1.44827586 5.40055334,1.44827586 Z" id="Shape"></path>
        </g>
    </g>
</svg>